<svg xmlns="http://www.w3.org/2000/svg" xmlns:xlink="http://www.w3.org/1999/xlink" xmlns:lucid="lucid" width="640" height="195.53"><g transform="translate(-200 -189.47499999999994)" lucid:page-tab-id="0_0"><path d="M0 0h1870.4v1323.2H0z" fill="#fff"/><path d="M220 220h200v145H220z" fill="#fff"/><path d="M220 220h200v145H220zM220 260h200" stroke="#834187" stroke-width="2" fill="none"/><use xlink:href="#a" transform="matrix(1,0,0,1,230,220) translate(13.86 27.506)"/><use xlink:href="#b" transform="matrix(1,0,0,1,225,262.5) translate(13.86 22.506)"/><use xlink:href="#c" transform="matrix(1,0,0,1,225,262.5) translate(97.776 22.506)"/><use xlink:href="#d" transform="matrix(1,0,0,1,225,297.5) translate(13.86 22.506)"/><use xlink:href="#c" transform="matrix(1,0,0,1,225,297.5) translate(95.27399999999999 22.506)"/><use xlink:href="#e" transform="matrix(1,0,0,1,225,332.5) translate(13.86 22.506)"/><use xlink:href="#f" transform="matrix(1,0,0,1,225,332.5) translate(50.346 22.506)"/><path d="M620 219.47h200v110H620z" fill="#fff"/><path d="M620 219.47h200v110H620zM620 259.47h200" stroke="#834187" stroke-width="2" fill="none"/><use xlink:href="#g" transform="matrix(1,0,0,1,630,219.4749999999999) translate(13.86 27.506)"/><use xlink:href="#h" transform="matrix(1,0,0,1,625,261.9749999999999) translate(13.86 22.506)"/><use xlink:href="#i" transform="matrix(1,0,0,1,625,261.9749999999999) translate(56.267999999999994 22.506)"/><use xlink:href="#j" transform="matrix(1,0,0,1,625,296.9749999999999) translate(13.86 22.506)"/><use xlink:href="#k" transform="matrix(1,0,0,1,625,296.9749999999999) translate(57.294 22.506)"/><path d="M500 209.47h40v60h-40z" stroke="#000" stroke-opacity="0" stroke-width="2" fill="#fff" fill-opacity="0"/><use xlink:href="#l" transform="matrix(1,0,0,1,505,214.47499999999994) translate(0.5 30.025)"/><path d="M541 239.47h58" stroke="#000" stroke-width="2" fill="none"/><path d="M541.03 240.47H540v-2h1.03z"/><path d="M609 229.47v20M619 239.47h-20M599 229.47v20" stroke="#000" stroke-width="2" fill="#fff"/><path d="M499 239.47h-39" stroke="#000" stroke-width="2" fill="none"/><path d="M500 240.47h-1.03v-2H500z"/><path d="M421.45 229.47l20 10-20 10M421.45 239.47h20M461.45 239.47c0 5.53-4.48 10-10 10s-10-4.47-10-10c0-5.52 4.48-10 10-10s10 4.48 10 10" stroke="#000" stroke-width="2" fill="#fff"/><defs><path d="M547-478c0 191-151 258-350 237V0H60v-693c55-11 127-17 193-17 172 0 294 58 294 232zm-144-2c0-106-104-123-206-107v227c108 15 206-7 206-120" id="m"/><path d="M291-90c49 0 97-19 123-38l43 85c-40 32-117 57-191 57C103 14 34-89 33-250c-2-167 81-264 240-264 129 0 199 68 200 202 0 33-4 65-10 95H163c5 84 39 127 128 127zm61-208c5-67-19-112-81-112-71-1-98 47-105 112h186" id="n"/><path d="M177-434c23-61 95-96 173-66l-17 122c-64-28-134-1-146 55V0H57v-500h101l15 66h4" id="o"/><path d="M200-90c53 9 88-53 47-80-80-53-213-55-211-192 2-102 65-152 171-152 67 0 135 17 175 39l-29 94c-31-11-84-29-129-29-54 0-78 51-41 74 81 50 213 53 211 187-2 110-75 163-194 163C133 14 65-7 25-31l36-97c31 17 89 40 139 38" id="p"/><path d="M269 14C107 14 36-88 33-250c-2-161 81-264 236-264 162 0 233 102 235 264 2 161-80 264-235 264zm0-418c-78 0-104 61-102 154 1 82 21 154 102 154 80 0 101-62 101-154 0-83-21-154-101-154" id="q"/><path d="M338-514c121 0 155 79 155 203V0H363v-284c-1-72-12-113-77-115-52-1-86 36-99 75V0H57v-500h103l15 66h4c32-43 81-80 159-80" id="r"/><g id="a"><use transform="matrix(0.018,0,0,0.018,0,0)" xlink:href="#m"/><use transform="matrix(0.018,0,0,0.018,9.648,0)" xlink:href="#n"/><use transform="matrix(0.018,0,0,0.018,18.792,0)" xlink:href="#o"/><use transform="matrix(0.018,0,0,0.018,25.11,0)" xlink:href="#p"/><use transform="matrix(0.018,0,0,0.018,32.705999999999996,0)" xlink:href="#q"/><use transform="matrix(0.018,0,0,0.018,42.372,0)" xlink:href="#r"/></g><path d="M251-636c-75-3-71 63-71 136h133v70H180V0h-80v-430H22v-70h78c-5-124 22-209 143-206 47 1 73 5 108 19l-18 67c-26-12-50-15-82-16" id="s"/><path d="M94-500h80V0H94v-500zm38-99c-31 0-55-23-55-53s24-56 55-56 58 26 58 56-28 53-58 53" id="t"/><path d="M152-439c26-60 97-88 178-61l-17 77c-74-29-156 5-156 73V0H77v-500h56l15 61h4" id="u"/><path d="M63-93c59 36 240 71 234-43-5-91-121-82-179-124-34-24-62-54-62-113 0-97 59-138 155-139 66-1 112 13 154 32l-19 66c-52-26-221-63-210 39 9 83 124 74 178 118 33 27 64 57 63 118-3 103-68 149-174 151C134 13 81-3 39-25" id="v"/><path d="M200 12C109 10 89-39 89-138v-292H11v-70h78v-99l80-23v122h136v70H169v277c1 59 6 93 57 95 38 1 55-9 84-20l18 61c-35 17-77 30-128 29" id="w"/><path d="M211-458l-54-101h-4l10 101V0H85v-711h44l335 467 52 96h5l-11-96v-456h78V11h-44" id="x"/><path d="M422-354c0 120-19 253 8 356h-59l-21-70h-5C315-22 265 8 189 8 98 8 39-43 39-134c0-147 152-157 302-151 10-93 1-159-99-153-57 4-110 14-148 35l-25-60c48-30 118-45 194-45 108-1 159 51 159 154zM122-142c-2 47 40 81 89 80 67-1 109-32 130-79v-83c-95-3-214-10-219 82" id="y"/><path d="M568-442c-74 2-103 45-118 108V0h-80v-283c0-87-6-159-94-159-65 0-104 47-119 98V0H77v-500h56l15 61h4c37-41 77-74 155-73 72 1 105 26 126 83 28-48 82-81 155-83 130-3 155 82 155 212V0h-80v-301c1-83-12-143-95-141" id="z"/><path d="M293-58c43 0 98-19 119-40l30 58C404-9 338 12 270 12 112 10 51-92 49-250c-1-159 70-258 220-262 155-4 211 110 184 270H132c0 116 45 184 161 184zm88-247c1-92-30-137-111-137-89 0-129 46-137 137h248" id="A"/><path d="M148-391c-34 0-57-24-57-58 0-35 22-58 57-58s60 22 59 58c0 34-24 58-59 58zm0 403c-34 0-57-24-57-58 0-35 22-58 57-58s60 22 59 58c0 34-24 58-59 58" id="B"/><g id="b"><use transform="matrix(0.018,0,0,0.018,0,0)" xlink:href="#s"/><use transform="matrix(0.018,0,0,0.018,5.742,0)" xlink:href="#t"/><use transform="matrix(0.018,0,0,0.018,10.565999999999999,0)" xlink:href="#u"/><use transform="matrix(0.018,0,0,0.018,16.686,0)" xlink:href="#v"/><use transform="matrix(0.018,0,0,0.018,24.264,0)" xlink:href="#w"/><use transform="matrix(0.018,0,0,0.018,30.365999999999996,0)" xlink:href="#x"/><use transform="matrix(0.018,0,0,0.018,42.48,0)" xlink:href="#y"/><use transform="matrix(0.018,0,0,0.018,51.407999999999994,0)" xlink:href="#z"/><use transform="matrix(0.018,0,0,0.018,66.024,0)" xlink:href="#A"/><use transform="matrix(0.018,0,0,0.018,75.168,0)" xlink:href="#B"/></g><path d="M74-100c89 50 337 72 327-78-8-132-168-134-251-198-46-36-87-77-87-158 0-190 253-210 408-146l-25 73c-38-17-105-31-168-31-104 0-173 93-107 164 94 102 313 99 313 289C484-48 386 9 246 12 162 13 95-2 46-25" id="C"/><path d="M313-512c130 0 165 79 165 210V0h-80v-285c-2-94-16-155-105-157-72-1-118 46-136 100V0H77v-500h56l15 61h4c32-42 86-73 161-73" id="D"/><path d="M290-509c71-1 121 13 170 30V23c0 132-72 189-204 189-71 0-115-8-159-27l21-68c37 13 69 25 124 25 122 0 148-66 139-191h-4c-28 39-65 61-132 60C95 9 50-86 49-248c-1-166 78-261 241-261zM132-249c2 104 25 190 127 190 75 0 106-39 121-105v-256c-27-13-61-19-102-19-103 0-147 74-146 190" id="E"/><g id="c"><use transform="matrix(0.018,0,0,0.018,0,0)" xlink:href="#C"/><use transform="matrix(0.018,0,0,0.018,9.558,0)" xlink:href="#w"/><use transform="matrix(0.018,0,0,0.018,15.66,0)" xlink:href="#u"/><use transform="matrix(0.018,0,0,0.018,21.78,0)" xlink:href="#t"/><use transform="matrix(0.018,0,0,0.018,26.604,0)" xlink:href="#D"/><use transform="matrix(0.018,0,0,0.018,36.45,0)" xlink:href="#E"/></g><path d="M189 12C123 10 86-25 86-100v-600h80v577c-10 72 59 74 108 54l9 63c-18 10-66 18-94 18" id="F"/><g id="d"><use transform="matrix(0.018,0,0,0.018,0,0)" xlink:href="#F"/><use transform="matrix(0.018,0,0,0.018,5.255999999999999,0)" xlink:href="#y"/><use transform="matrix(0.018,0,0,0.018,14.183999999999997,0)" xlink:href="#v"/><use transform="matrix(0.018,0,0,0.018,21.761999999999997,0)" xlink:href="#w"/><use transform="matrix(0.018,0,0,0.018,27.863999999999997,0)" xlink:href="#x"/><use transform="matrix(0.018,0,0,0.018,39.977999999999994,0)" xlink:href="#y"/><use transform="matrix(0.018,0,0,0.018,48.905999999999985,0)" xlink:href="#z"/><use transform="matrix(0.018,0,0,0.018,63.522,0)" xlink:href="#A"/><use transform="matrix(0.018,0,0,0.018,72.666,0)" xlink:href="#B"/></g><g id="e"><use transform="matrix(0.018,0,0,0.018,0,0)" xlink:href="#y"/><use transform="matrix(0.018,0,0,0.018,8.927999999999999,0)" xlink:href="#E"/><use transform="matrix(0.018,0,0,0.018,18.593999999999998,0)" xlink:href="#A"/><use transform="matrix(0.018,0,0,0.018,27.738,0)" xlink:href="#B"/></g><path d="M232 12C103 12 68-68 69-198v-302h80v285c0 87 12 158 98 157 78-1 111-51 135-108v-334h80c4 166-10 350 11 500h-55l-20-79h-5c-31 50-80 91-161 91" id="G"/><path d="M247 9C183 10 114-8 77-29v-671h80v249h4c28-36 76-61 136-61 144 0 194 97 194 254C491-91 407 8 247 9zm161-268c-2-100-27-183-125-183-74 0-109 46-126 107v252c24 14 63 22 102 22 105 0 151-78 149-198" id="H"/><g id="f"><use transform="matrix(0.018,0,0,0.018,0,0)" xlink:href="#x"/><use transform="matrix(0.018,0,0,0.018,12.113999999999999,0)" xlink:href="#G"/><use transform="matrix(0.018,0,0,0.018,21.816,0)" xlink:href="#z"/><use transform="matrix(0.018,0,0,0.018,36.432,0)" xlink:href="#H"/><use transform="matrix(0.018,0,0,0.018,46.15200000000001,0)" xlink:href="#A"/><use transform="matrix(0.018,0,0,0.018,55.29599999999999,0)" xlink:href="#u"/></g><path d="M60-695c185-21 473-52 471 158-1 92-49 143-125 162v6c89 16 147 67 147 172C553-34 410 14 236 10 176 9 111 6 60-5v-690zm132 586c98 16 219 8 219-95 1-107-113-99-219-98v193zm200-400c5-96-111-93-200-84v187c105 7 195-13 200-103" id="I"/><path d="M68-500h130V0H68v-500zm62-73c-46 0-81-26-81-68s35-70 81-70c45 0 85 29 85 70 0 42-40 68-85 68" id="J"/><path d="M208 14C110 12 74-35 74-138v-252H5v-110h69v-94l130-37v131h122v110H204v192c2 58 2 97 50 97 30 0 44-6 67-16l23 100c-34 16-86 31-136 31" id="K"/><path d="M339-514c122 0 154 79 154 203V0H363v-284c-2-74-11-115-79-115-48 0-88 39-97 80V0H57v-700h130v256h4c32-41 74-70 148-70" id="L"/><path d="M261-512c41 0 62 4 91 15v-203h130v524c0 66 0 116 10 177h-93l-18-65h-4c-25 45-77 80-146 78C90 11 33-84 33-242c0-161 72-270 228-270zm-94 274c0 76 22 141 94 142 54 0 79-28 91-72v-212c-20-15-39-23-75-22-89 3-110 60-110 164" id="M"/><path d="M306-378c-38-49-172-17-221 4l-31-97c53-24 132-39 210-39 122 0 181 55 180 175-1 112-20 242 11 336H349l-21-69h-5c-28 41-74 78-147 76C81 5 23-45 23-138c0-142 140-164 291-160 5-37 4-65-8-80zM157-158c-3 37 24 59 62 59 49 0 79-27 96-55v-65c-71-4-153-3-158 61" id="N"/><path d="M147-500c36 120 82 230 110 359h6c19-130 60-239 89-359h134C423-317 367-125 298 54c-28 72-55 151-146 151-35 0-62-6-83-17L93 84c63 20 96-24 107-84L-9-500h156" id="O"/><g id="g"><use transform="matrix(0.018,0,0,0.018,0,0)" xlink:href="#I"/><use transform="matrix(0.018,0,0,0.018,10.638,0)" xlink:href="#J"/><use transform="matrix(0.018,0,0,0.018,15.48,0)" xlink:href="#o"/><use transform="matrix(0.018,0,0,0.018,22.338,0)" xlink:href="#K"/><use transform="matrix(0.018,0,0,0.018,28.62,0)" xlink:href="#L"/><use transform="matrix(0.018,0,0,0.018,38.43,0)" xlink:href="#M"/><use transform="matrix(0.018,0,0,0.018,48.132,0)" xlink:href="#N"/><use transform="matrix(0.018,0,0,0.018,57.059999999999995,0)" xlink:href="#O"/></g><path d="M276-509c50 0 69 4 105 17v-208h80v528c1 67-1 118 10 174h-54l-20-71h-4c-25 44-78 82-147 81C97 8 50-86 49-248c-1-159 77-260 227-261zM132-248c1 104 26 190 127 190 75 0 108-41 122-107v-248c-27-20-53-26-102-26-105 0-148 72-147 191" id="P"/><g id="h"><use transform="matrix(0.018,0,0,0.018,0,0)" xlink:href="#P"/><use transform="matrix(0.018,0,0,0.018,9.684,0)" xlink:href="#y"/><use transform="matrix(0.018,0,0,0.018,18.612,0)" xlink:href="#w"/><use transform="matrix(0.018,0,0,0.018,24.516,0)" xlink:href="#A"/><use transform="matrix(0.018,0,0,0.018,33.66,0)" xlink:href="#B"/></g><path d="M262 9C206 9 136 6 85 1v-701c55-8 125-8 187-8 221 0 326 133 326 353C598-133 489 9 262 9zm248-364c0-173-76-287-264-279-26 1-55 2-78 5v560c27 3 67 4 96 4 176 0 246-117 246-290" id="Q"/><g id="i"><use transform="matrix(0.018,0,0,0.018,0,0)" xlink:href="#Q"/><use transform="matrix(0.018,0,0,0.018,11.771999999999998,0)" xlink:href="#y"/><use transform="matrix(0.018,0,0,0.018,20.699999999999996,0)" xlink:href="#w"/><use transform="matrix(0.018,0,0,0.018,26.603999999999996,0)" xlink:href="#A"/></g><g id="j"><use transform="matrix(0.018,0,0,0.018,0,0)" xlink:href="#w"/><use transform="matrix(0.018,0,0,0.018,6.101999999999999,0)" xlink:href="#t"/><use transform="matrix(0.018,0,0,0.018,10.925999999999998,0)" xlink:href="#z"/><use transform="matrix(0.018,0,0,0.018,25.541999999999998,0)" xlink:href="#A"/><use transform="matrix(0.018,0,0,0.018,34.686,0)" xlink:href="#B"/></g><path d="M537-626H319V0h-83v-626H18v-74h519v74" id="R"/><g id="k"><use transform="matrix(0.018,0,0,0.018,0,0)" xlink:href="#R"/><use transform="matrix(0.018,0,0,0.018,9.989999999999998,0)" xlink:href="#t"/><use transform="matrix(0.018,0,0,0.018,14.813999999999998,0)" xlink:href="#z"/><use transform="matrix(0.018,0,0,0.018,29.429999999999996,0)" xlink:href="#A"/></g><path d="M106-169C34-169 62-67 57 0H25v-261h32l-1 103c12-21 28-36 61-36 89 0 53 116 60 194h-32v-121c2-32-8-49-39-48" id="S"/><path d="M141-36C126-15 110 5 73 4 37 3 15-17 15-53c-1-64 63-63 125-63 3-35-9-54-41-54-24 1-41 7-42 31l-33-3c5-37 33-52 76-52 45 0 72 20 72 64v82c-1 20 7 32 28 27v20c-31 9-61-2-59-35zM48-53c0 20 12 33 32 33 41-3 63-29 60-74-43 2-92-5-92 41" id="T"/><path d="M135-143c-3-34-86-38-87 0 15 53 115 12 119 90S17 21 10-45l28-5c4 36 97 45 98 0-10-56-113-15-118-90-4-57 82-63 122-42 12 7 21 19 24 35" id="U"/><g id="l"><use transform="matrix(0.05,0,0,0.05,0,0)" xlink:href="#S"/><use transform="matrix(0.05,0,0,0.05,10,0)" xlink:href="#T"/><use transform="matrix(0.05,0,0,0.05,20,0)" xlink:href="#U"/></g></defs></g></svg>