<svg xmlns="http://www.w3.org/2000/svg" xmlns:xlink="http://www.w3.org/1999/xlink" xmlns:lucid="lucid" width="500" height="235"><g transform="translate(-200 -200)" lucid:page-tab-id="0_0"><path d="M0 0h1870.4v1323.2H0z" fill="#fff"/><path d="M220 220h200v145H220z" fill="#fff"/><path d="M220 220h200v145H220zM220 260h200" stroke="#834187" stroke-width="2" fill="none"/><use xlink:href="#a" transform="matrix(1,0,0,1,230,220) translate(13.86 27.506)"/><use xlink:href="#b" transform="matrix(1,0,0,1,225,262.5) translate(13.86 22.506)"/><use xlink:href="#c" transform="matrix(1,0,0,1,225,262.5) translate(97.776 22.506)"/><use xlink:href="#d" transform="matrix(1,0,0,1,225,297.5) translate(13.86 22.506)"/><use xlink:href="#c" transform="matrix(1,0,0,1,225,297.5) translate(95.27399999999999 22.506)"/><use xlink:href="#e" transform="matrix(1,0,0,1,225,332.5) translate(13.86 22.506)"/><use xlink:href="#f" transform="matrix(1,0,0,1,225,332.5) translate(50.346 22.506)"/><path d="M220 380h200v35H220z" stroke="#000" stroke-opacity="0" stroke-width="2" fill="#fff" fill-opacity="0"/><use xlink:href="#g" transform="matrix(1,0,0,1,225,385) translate(54.032000000000004 17.7625)"/><use xlink:href="#h" transform="matrix(1,0,0,1,225,385) translate(102.596 17.7625)"/><path d="M480 220h200v145H480z" fill="#fff"/><path d="M480 220h200v145H480zM480 260h200" stroke="#834187" stroke-width="2" fill="none"/><use xlink:href="#i" transform="matrix(1,0,0,1,490,220) translate(13.86 27.506)"/><use xlink:href="#b" transform="matrix(1,0,0,1,485,262.5) translate(13.86 22.506)"/><use xlink:href="#j" transform="matrix(1,0,0,1,485,262.5) translate(97.776 22.506)"/><g><use xlink:href="#d" transform="matrix(1,0,0,1,485,297.5) translate(13.86 22.506)"/><use xlink:href="#k" transform="matrix(1,0,0,1,485,297.5) translate(95.27399999999999 22.506)"/></g><g><use xlink:href="#e" transform="matrix(1,0,0,1,485,332.5) translate(13.86 22.506)"/><use xlink:href="#l" transform="matrix(1,0,0,1,485,332.5) translate(50.346 22.506)"/></g><path d="M480 380h200v35H480z" stroke="#000" stroke-opacity="0" stroke-width="2" fill="#fff" fill-opacity="0"/><g><use xlink:href="#m" transform="matrix(1,0,0,1,485,385) translate(72.797 17.7625)"/></g><defs><path d="M547-478c0 191-151 258-350 237V0H60v-693c55-11 127-17 193-17 172 0 294 58 294 232zm-144-2c0-106-104-123-206-107v227c108 15 206-7 206-120" id="n"/><path d="M291-90c49 0 97-19 123-38l43 85c-40 32-117 57-191 57C103 14 34-89 33-250c-2-167 81-264 240-264 129 0 199 68 200 202 0 33-4 65-10 95H163c5 84 39 127 128 127zm61-208c5-67-19-112-81-112-71-1-98 47-105 112h186" id="o"/><path d="M177-434c23-61 95-96 173-66l-17 122c-64-28-134-1-146 55V0H57v-500h101l15 66h4" id="p"/><path d="M200-90c53 9 88-53 47-80-80-53-213-55-211-192 2-102 65-152 171-152 67 0 135 17 175 39l-29 94c-31-11-84-29-129-29-54 0-78 51-41 74 81 50 213 53 211 187-2 110-75 163-194 163C133 14 65-7 25-31l36-97c31 17 89 40 139 38" id="q"/><path d="M269 14C107 14 36-88 33-250c-2-161 81-264 236-264 162 0 233 102 235 264 2 161-80 264-235 264zm0-418c-78 0-104 61-102 154 1 82 21 154 102 154 80 0 101-62 101-154 0-83-21-154-101-154" id="r"/><path d="M338-514c121 0 155 79 155 203V0H363v-284c-1-72-12-113-77-115-52-1-86 36-99 75V0H57v-500h103l15 66h4c32-43 81-80 159-80" id="s"/><g id="a"><use transform="matrix(0.018,0,0,0.018,0,0)" xlink:href="#n"/><use transform="matrix(0.018,0,0,0.018,9.648,0)" xlink:href="#o"/><use transform="matrix(0.018,0,0,0.018,18.792,0)" xlink:href="#p"/><use transform="matrix(0.018,0,0,0.018,25.11,0)" xlink:href="#q"/><use transform="matrix(0.018,0,0,0.018,32.705999999999996,0)" xlink:href="#r"/><use transform="matrix(0.018,0,0,0.018,42.372,0)" xlink:href="#s"/></g><path d="M251-636c-75-3-71 63-71 136h133v70H180V0h-80v-430H22v-70h78c-5-124 22-209 143-206 47 1 73 5 108 19l-18 67c-26-12-50-15-82-16" id="t"/><path d="M94-500h80V0H94v-500zm38-99c-31 0-55-23-55-53s24-56 55-56 58 26 58 56-28 53-58 53" id="u"/><path d="M152-439c26-60 97-88 178-61l-17 77c-74-29-156 5-156 73V0H77v-500h56l15 61h4" id="v"/><path d="M63-93c59 36 240 71 234-43-5-91-121-82-179-124-34-24-62-54-62-113 0-97 59-138 155-139 66-1 112 13 154 32l-19 66c-52-26-221-63-210 39 9 83 124 74 178 118 33 27 64 57 63 118-3 103-68 149-174 151C134 13 81-3 39-25" id="w"/><path d="M200 12C109 10 89-39 89-138v-292H11v-70h78v-99l80-23v122h136v70H169v277c1 59 6 93 57 95 38 1 55-9 84-20l18 61c-35 17-77 30-128 29" id="x"/><path d="M211-458l-54-101h-4l10 101V0H85v-711h44l335 467 52 96h5l-11-96v-456h78V11h-44" id="y"/><path d="M422-354c0 120-19 253 8 356h-59l-21-70h-5C315-22 265 8 189 8 98 8 39-43 39-134c0-147 152-157 302-151 10-93 1-159-99-153-57 4-110 14-148 35l-25-60c48-30 118-45 194-45 108-1 159 51 159 154zM122-142c-2 47 40 81 89 80 67-1 109-32 130-79v-83c-95-3-214-10-219 82" id="z"/><path d="M568-442c-74 2-103 45-118 108V0h-80v-283c0-87-6-159-94-159-65 0-104 47-119 98V0H77v-500h56l15 61h4c37-41 77-74 155-73 72 1 105 26 126 83 28-48 82-81 155-83 130-3 155 82 155 212V0h-80v-301c1-83-12-143-95-141" id="A"/><path d="M293-58c43 0 98-19 119-40l30 58C404-9 338 12 270 12 112 10 51-92 49-250c-1-159 70-258 220-262 155-4 211 110 184 270H132c0 116 45 184 161 184zm88-247c1-92-30-137-111-137-89 0-129 46-137 137h248" id="B"/><path d="M148-391c-34 0-57-24-57-58 0-35 22-58 57-58s60 22 59 58c0 34-24 58-59 58zm0 403c-34 0-57-24-57-58 0-35 22-58 57-58s60 22 59 58c0 34-24 58-59 58" id="C"/><g id="b"><use transform="matrix(0.018,0,0,0.018,0,0)" xlink:href="#t"/><use transform="matrix(0.018,0,0,0.018,5.742,0)" xlink:href="#u"/><use transform="matrix(0.018,0,0,0.018,10.565999999999999,0)" xlink:href="#v"/><use transform="matrix(0.018,0,0,0.018,16.686,0)" xlink:href="#w"/><use transform="matrix(0.018,0,0,0.018,24.264,0)" xlink:href="#x"/><use transform="matrix(0.018,0,0,0.018,30.365999999999996,0)" xlink:href="#y"/><use transform="matrix(0.018,0,0,0.018,42.48,0)" xlink:href="#z"/><use transform="matrix(0.018,0,0,0.018,51.407999999999994,0)" xlink:href="#A"/><use transform="matrix(0.018,0,0,0.018,66.024,0)" xlink:href="#B"/><use transform="matrix(0.018,0,0,0.018,75.168,0)" xlink:href="#C"/></g><path d="M74-100c89 50 337 72 327-78-8-132-168-134-251-198-46-36-87-77-87-158 0-190 253-210 408-146l-25 73c-38-17-105-31-168-31-104 0-173 93-107 164 94 102 313 99 313 289C484-48 386 9 246 12 162 13 95-2 46-25" id="D"/><path d="M313-512c130 0 165 79 165 210V0h-80v-285c-2-94-16-155-105-157-72-1-118 46-136 100V0H77v-500h56l15 61h4c32-42 86-73 161-73" id="E"/><path d="M290-509c71-1 121 13 170 30V23c0 132-72 189-204 189-71 0-115-8-159-27l21-68c37 13 69 25 124 25 122 0 148-66 139-191h-4c-28 39-65 61-132 60C95 9 50-86 49-248c-1-166 78-261 241-261zM132-249c2 104 25 190 127 190 75 0 106-39 121-105v-256c-27-13-61-19-102-19-103 0-147 74-146 190" id="F"/><g id="c"><use transform="matrix(0.018,0,0,0.018,0,0)" xlink:href="#D"/><use transform="matrix(0.018,0,0,0.018,9.558,0)" xlink:href="#x"/><use transform="matrix(0.018,0,0,0.018,15.66,0)" xlink:href="#v"/><use transform="matrix(0.018,0,0,0.018,21.78,0)" xlink:href="#u"/><use transform="matrix(0.018,0,0,0.018,26.604,0)" xlink:href="#E"/><use transform="matrix(0.018,0,0,0.018,36.45,0)" xlink:href="#F"/></g><path d="M189 12C123 10 86-25 86-100v-600h80v577c-10 72 59 74 108 54l9 63c-18 10-66 18-94 18" id="G"/><g id="d"><use transform="matrix(0.018,0,0,0.018,0,0)" xlink:href="#G"/><use transform="matrix(0.018,0,0,0.018,5.255999999999999,0)" xlink:href="#z"/><use transform="matrix(0.018,0,0,0.018,14.183999999999997,0)" xlink:href="#w"/><use transform="matrix(0.018,0,0,0.018,21.761999999999997,0)" xlink:href="#x"/><use transform="matrix(0.018,0,0,0.018,27.863999999999997,0)" xlink:href="#y"/><use transform="matrix(0.018,0,0,0.018,39.977999999999994,0)" xlink:href="#z"/><use transform="matrix(0.018,0,0,0.018,48.905999999999985,0)" xlink:href="#A"/><use transform="matrix(0.018,0,0,0.018,63.522,0)" xlink:href="#B"/><use transform="matrix(0.018,0,0,0.018,72.666,0)" xlink:href="#C"/></g><g id="e"><use transform="matrix(0.018,0,0,0.018,0,0)" xlink:href="#z"/><use transform="matrix(0.018,0,0,0.018,8.927999999999999,0)" xlink:href="#F"/><use transform="matrix(0.018,0,0,0.018,18.593999999999998,0)" xlink:href="#B"/><use transform="matrix(0.018,0,0,0.018,27.738,0)" xlink:href="#C"/></g><path d="M232 12C103 12 68-68 69-198v-302h80v285c0 87 12 158 98 157 78-1 111-51 135-108v-334h80c4 166-10 350 11 500h-55l-20-79h-5c-31 50-80 91-161 91" id="H"/><path d="M247 9C183 10 114-8 77-29v-671h80v249h4c28-36 76-61 136-61 144 0 194 97 194 254C491-91 407 8 247 9zm161-268c-2-100-27-183-125-183-74 0-109 46-126 107v252c24 14 63 22 102 22 105 0 151-78 149-198" id="I"/><g id="f"><use transform="matrix(0.018,0,0,0.018,0,0)" xlink:href="#E"/><use transform="matrix(0.018,0,0,0.018,9.846,0)" xlink:href="#H"/><use transform="matrix(0.018,0,0,0.018,19.548000000000002,0)" xlink:href="#A"/><use transform="matrix(0.018,0,0,0.018,34.164,0)" xlink:href="#I"/><use transform="matrix(0.018,0,0,0.018,43.88399999999999,0)" xlink:href="#B"/><use transform="matrix(0.018,0,0,0.018,53.028,0)" xlink:href="#v"/></g><path d="M104-500c49 140 107 271 148 420h5c31-148 79-280 119-420h81C396-319 339-134 276 44c-20 55-46 106-82 140-28 26-82 25-117 11l14-69c34 12 54 2 79-24 17-20 32-54 43-102L12-500h92" id="J"/><g id="g"><use transform="matrix(0.018,0,0,0.018,0,0)" xlink:href="#B"/><use transform="matrix(0.018,0,0,0.018,9.144,0)" xlink:href="#E"/><use transform="matrix(0.018,0,0,0.018,18.990000000000002,0)" xlink:href="#x"/><use transform="matrix(0.018,0,0,0.018,25.092000000000002,0)" xlink:href="#u"/><use transform="matrix(0.018,0,0,0.018,29.916000000000007,0)" xlink:href="#x"/><use transform="matrix(0.018,0,0,0.018,36.018,0)" xlink:href="#J"/></g><path d="M262 12c-51 0-69-5-105-20v208H77v-700h55l15 60h4c28-43 75-72 143-72 149 0 198 89 198 252 0 161-73 272-230 272zm147-273c-1-103-28-181-130-181-75 0-107 41-122 107v248c27 20 53 30 102 29 104-2 152-86 150-203" id="K"/><g id="h"><use transform="matrix(0.018,0,0,0.018,0,0)" xlink:href="#x"/><use transform="matrix(0.018,0,0,0.018,6.101999999999999,0)" xlink:href="#J"/><use transform="matrix(0.018,0,0,0.018,14.489999999999998,0)" xlink:href="#K"/><use transform="matrix(0.018,0,0,0.018,24.227999999999998,0)" xlink:href="#B"/></g><path d="M278 14c-42 0-63-5-91-19v205H57v-700h95l15 60h4c33-47 73-74 148-74 142 0 188 93 188 251 0 164-68 277-229 277zm95-280c0-79-20-138-93-138-57 0-77 30-93 76v208c20 15 38 25 74 24 90-3 112-66 112-170" id="L"/><path d="M101-110h139v-395l15-68-48 59-89 61-55-75 228-184h73v602h136V0H101v-110" id="M"/><g id="i"><use transform="matrix(0.018,0,0,0.018,0,0)" xlink:href="#L"/><use transform="matrix(0.018,0,0,0.018,9.719999999999999,0)" xlink:href="#M"/></g><path d="M522-493c0 190-158 248-354 227V0H85v-693c48-12 110-15 169-15 155 0 268 57 268 215zm-88 0c0-134-136-157-266-137v290c139 17 266-9 266-153" id="N"/><g id="j"><use transform="matrix(0.018,0,0,0.018,0,0)" xlink:href="#N"/><use transform="matrix(0.018,0,0,0.018,9.414,0)" xlink:href="#B"/><use transform="matrix(0.018,0,0,0.018,18.558,0)" xlink:href="#x"/><use transform="matrix(0.018,0,0,0.018,24.462,0)" xlink:href="#B"/><use transform="matrix(0.018,0,0,0.018,33.606,0)" xlink:href="#v"/></g><g id="k"><use transform="matrix(0.018,0,0,0.018,0,0)" xlink:href="#N"/><use transform="matrix(0.018,0,0,0.018,9.431999999999999,0)" xlink:href="#z"/><use transform="matrix(0.018,0,0,0.018,18.36,0)" xlink:href="#E"/></g><path d="M524-215H406V0h-78v-215H20v-33l332-463h54v426h118v70zm-196-70c2-102-6-213 10-300h-3l-35 68c-63 80-116 170-189 240 64-11 142-8 217-8" id="O"/><path d="M267-712c112 0 179 61 179 171 0 193-130 309-219 431l-49 43v4c78-19 187-8 282-11V0H62v-29c108-116 222-246 285-410 36-94 12-203-97-203-54 0-105 27-136 51l-33-57c43-37 108-64 186-64" id="P"/><g id="l"><use transform="matrix(0.018,0,0,0.018,0,0)" xlink:href="#O"/><use transform="matrix(0.018,0,0,0.018,9.809999999999999,0)" xlink:href="#P"/></g><g id="m"><use transform="matrix(0.018,0,0,0.018,0,0)" xlink:href="#B"/><use transform="matrix(0.018,0,0,0.018,9.144,0)" xlink:href="#E"/><use transform="matrix(0.018,0,0,0.018,18.990000000000002,0)" xlink:href="#x"/><use transform="matrix(0.018,0,0,0.018,25.092000000000002,0)" xlink:href="#u"/><use transform="matrix(0.018,0,0,0.018,29.916000000000007,0)" xlink:href="#x"/><use transform="matrix(0.018,0,0,0.018,36.018,0)" xlink:href="#J"/></g></defs></g></svg>